<?xml version="1.0" encoding="utf-8"?>
<!-- Generator: Adobe Illustrator 22.0.0, SVG Export Plug-In . SVG Version: 6.00 Build 0)  -->
<svg version="1.1" id="Laag_1" xmlns="http://www.w3.org/2000/svg" xmlns:xlink="http://www.w3.org/1999/xlink" x="0px" y="0px"
	 viewBox="0 0 251.7 188.9" style="enable-background:new 0 0 251.7 188.9;" xml:space="preserve">
<style type="text/css">
	.st0{fill:#FFFFFF;}
</style>
<g transform="translate(1.4065934065934016 1.4065934065934016) scale(2.81 2.81)">
	<path class="st0" d="M74.6,66.9h-61c-8,0-14.5-6.4-14.5-14.4V13.9c0-8,6.5-14.5,14.5-14.5h61.1c8,0,14.5,6.5,14.5,14.5v38.6
		C89.1,60.5,82.6,66.9,74.6,66.9z M13.6,3.7C8,3.7,3.4,8.3,3.4,13.9v38.6c0,5.6,4.6,10.2,10.2,10.2h61.1c5.6,0,10.2-4.6,10.2-10.2
		V13.9c0-5.6-4.6-10.2-10.2-10.2C74.7,3.7,13.6,3.7,13.6,3.7z"/>
	<path class="st0" d="M10.1,14.1c10.8,10.5,21.7,21.1,32.5,31.6c2,2,5.1-1.1,3.1-3.1C34.8,32.1,24,21.6,13.2,11
		C11.2,9.1,8.1,12.2,10.1,14.1L10.1,14.1z"/>
	<path class="st0" d="M45.6,45.7c10.8-10.5,21.7-21.1,32.5-31.6c2-2-1.1-5.1-3.1-3.1C64.2,21.6,53.4,32.1,42.6,42.6
		C40.5,44.6,43.6,47.7,45.6,45.7L45.6,45.7z"/>
	<path class="st0" d="M77.9,53.2c-7.2-6.8-14.4-13.6-21.6-20.5c-2-1.9-5.1,1.1-3.1,3.1c7.2,6.8,14.4,13.6,21.6,20.5
		C76.9,58.2,80,55.1,77.9,53.2L77.9,53.2z"/>
	<path class="st0" d="M13.5,56.2c7.2-6.8,14.4-13.6,21.6-20.5c2-1.9-1-5-3.1-3.1c-7.2,6.9-14.4,13.7-21.5,20.6
		C8.4,55.1,11.5,58.2,13.5,56.2L13.5,56.2z"/>
</g>
</svg>
