<?xml version="1.0" encoding="utf-8"?>
<!-- Generator: Adobe Illustrator 22.0.0, SVG Export Plug-In . SVG Version: 6.00 Build 0)  -->
<svg version="1.1" id="Laag_1" xmlns="http://www.w3.org/2000/svg" xmlns:xlink="http://www.w3.org/1999/xlink" x="0px" y="0px"
	 viewBox="0 0 87.5 86.8" style="enable-background:new 0 0 87.5 86.8;" xml:space="preserve">
<style type="text/css">
	.st0{fill:#FFFFFF;}
</style>
<path class="st0" d="M25.9-0.9c-14.3,0-26,11.7-26,26v36c0,14.3,11.7,26,26,26h36c14.3,0,26-11.7,26-26v-36c0-14.3-11.7-26-26-26
	H25.9z M25.9,3.1h36c12.2,0,22,9.8,22,22v36c0,12.2-9.8,22-22,22h-36c-12.2,0-22-9.8-22-22v-36C3.9,12.9,13.7,3.1,25.9,3.1z
	 M67.9,15.1c-2.2,0-4,1.8-4,4s1.8,4,4,4s4-1.8,4-4S70.1,15.1,67.9,15.1z M43.9,21.1c-12.1,0-22,9.9-22,22s9.9,22,22,22s22-9.9,22-22
	S56,21.1,43.9,21.1z M43.9,25.1c10,0,18,8,18,18s-8,18-18,18s-18-8-18-18S33.9,25.1,43.9,25.1z"/>
</svg>
